<?xml version="1.0" standalone="no"?>
<!DOCTYPE svg PUBLIC "-//W3C//DTD SVG 20010904//EN"
 "http://www.w3.org/TR/2001/REC-SVG-20010904/DTD/svg10.dtd">
<svg version="1.0" xmlns="http://www.w3.org/2000/svg"
 width="37.000000pt" height="30.000000pt" viewBox="0 0 37.000000 30.000000"
 preserveAspectRatio="xMidYMid meet">

<g transform="translate(0.000000,30.000000) scale(0.100000,-0.100000)"
fill="#000000" stroke="none">
<path d="M122 258 c-7 -7 -12 -42 -12 -80 0 -66 -1 -68 -26 -68 -57 0 -87 -47
-45 -70 30 -15 55 -12 79 10 19 18 22 31 22 101 l0 79 43 -6 c49 -8 43 6 -14
30 -27 11 -39 12 -47 4z m-68 -172 c-10 -8 -21 -12 -24 -10 -5 6 21 24 34 24
6 0 1 -6 -10 -14z"/>
<path d="M236 253 c-3 -3 -6 -46 -6 -94 0 -78 3 -91 22 -109 24 -22 49 -25 79
-10 42 23 12 70 -45 70 -25 0 -26 2 -26 69 0 65 -8 90 -24 74z m83 -172 c17
-11 6 -31 -18 -31 -18 0 -41 18 -41 32 0 11 41 10 59 -1z"/>
<path d="M150 125 c0 -69 3 -85 15 -85 12 0 15 16 15 85 0 69 -3 85 -15 85
-12 0 -15 -16 -15 -85z"/>
<path d="M190 195 c0 -8 7 -15 15 -15 8 0 15 7 15 15 0 8 -7 15 -15 15 -8 0
-15 -7 -15 -15z"/>
<path d="M190 105 c0 -51 3 -65 15 -65 12 0 15 14 15 65 0 51 -3 65 -15 65
-12 0 -15 -14 -15 -65z"/>
</g>
</svg>
